<svg xmlns="http://www.w3.org/2000/svg" width="22" height="20" viewBox="0 0 22 20">
    <path data-name="패스 3616" d="M0 0h22v20H0z" style="fill:none"/>
    <path data-name="빼기 12" d="M7.5 15a7.5 7.5 0 1 1 0-15v1.667a5.833 5.833 0 1 0 5.774 6.667h1.68A7.487 7.487 0 0 1 7.5 15z" transform="translate(2 2.5)" style="fill:#495057"/>
    <path data-name="패스 3617" d="M0 0h5v1.667H0z" transform="translate(9.5 9.167)" style="fill:#fff"/>
    <path data-name="사각형 10938 - 윤곽선" d="M0 0h5v1.667H0z" transform="translate(9.5 9.167)" style="fill:#495057"/>
    <path data-name="패스 3618" d="M2.451-7.47C1.281-7.47.4-6.53.4-4.65s.881 2.813 2.051 2.813S4.5-2.777 4.5-4.65s-.879-2.82-2.049-2.82zm0 1.045c.526 0 .92.552.92 1.775s-.394 1.768-.92 1.768-.92-.552-.92-1.768.394-1.775.92-1.775zM5.336-3.23a.639.639 0 0 0-.657.657.639.639 0 0 0 .657.657.638.638 0 0 0 .651-.657.638.638 0 0 0-.651-.657zm3.136 1.387a1.83 1.83 0 0 0 1.945-1.867 1.668 1.668 0 0 0-1.761-1.814 1.656 1.656 0 0 0-.861.223l.059-1.006h2.3v-1.018H6.769L6.612-4.2H7.7a.887.887 0 0 1 .756-.362.769.769 0 0 1 .8.848.776.776 0 0 1-.782.855.694.694 0 0 1-.782-.677H6.513a1.778 1.778 0 0 0 1.959 1.693z" transform="translate(10.757 7.587)" style="stroke:#495057;stroke-width:.2px;fill:#495057"/>
    <path data-name="타원 728" d="M2.5 1.667a.833.833 0 1 0 .833.833.834.834 0 0 0-.833-.833M2.5 0A2.5 2.5 0 1 1 0 2.5 2.5 2.5 0 0 1 2.5 0z" transform="translate(13.667 7.5)" style="fill:#495057"/>
</svg>
