<svg xmlns="http://www.w3.org/2000/svg" width="20" height="20" viewBox="0 0 20 20">
    <path data-name="패스 3616" d="M0 0h20v20H0z" style="fill:none"/>
    <path data-name="빼기 12" d="M7.5 15a7.5 7.5 0 1 1 7.315-9.167h-1.724a5.833 5.833 0 1 0-.053 3.5h1.736A7.489 7.489 0 0 1 7.5 15z" transform="translate(2 2.5)" style="fill:#495057"/>
    <path data-name="패스 3617" d="M0 0h5v1.667H0z" transform="translate(9.5 9.167)" style="fill:#fff"/>
    <path data-name="사각형 10938 - 윤곽선" d="M0 0h5v1.667H0z" transform="translate(9.5 9.167)" style="fill:#495057"/>
    <path data-name="타원 728" d="M2.5 1.667a.833.833 0 1 0 .833.833.834.834 0 0 0-.833-.833M2.5 0A2.5 2.5 0 1 1 0 2.5 2.5 2.5 0 0 1 2.5 0z" transform="translate(13.667 7.5)" style="fill:#495057"/>
</svg>
