<svg xmlns="http://www.w3.org/2000/svg" width="20" height="20" viewBox="0 0 20 20">
    <path data-name="패스 3616" d="M0 0h20v20H0z" style="fill:none"/>
    <path data-name="빼기 12" d="M7.5 15a7.5 7.5 0 1 1 0-15v1.667a5.833 5.833 0 1 0 5.774 6.667h1.68A7.487 7.487 0 0 1 7.5 15z" transform="translate(2 2.5)" style="fill:#495057"/>
    <path data-name="패스 3617" d="M0 0h5v1.667H0z" transform="translate(9.5 9.167)" style="fill:#fff"/>
    <path data-name="사각형 10938 - 윤곽선" d="M0 0h5v1.667H0z" transform="translate(9.5 9.167)" style="fill:#495057"/>
    <path data-name="타원 728" d="M2.5 1.667a.833.833 0 1 0 .833.833.834.834 0 0 0-.833-.833M2.5 0A2.5 2.5 0 1 1 0 2.5 2.5 2.5 0 0 1 2.5 0z" transform="translate(13.667 7.5)" style="fill:#495057"/>
    <path data-name="패스 3624" d="M2.373-7.47A1.861 1.861 0 0 0 .381-5.6h1.256a.734.734 0 0 1 .729-.8.664.664 0 0 1 .757.68c0 .435-.309.715-.828.715h-.567v1.035H2.3c.6 0 1 .252 1 .729 0 .421-.351.708-.877.708a.773.773 0 0 1-.87-.729H.29a1.921 1.921 0 0 0 2.125 1.8 1.893 1.893 0 0 0 2.118-1.786 1.312 1.312 0 0 0-1.115-1.276 1.241 1.241 0 0 0 .961-1.227A1.787 1.787 0 0 0 2.373-7.47z" transform="translate(12.088 8.057)" style="stroke:#495057;stroke-width:.2px;fill:#495057"/>
</svg>
